<svg id="Livello_1" data-name="Livello 1" xmlns="http://www.w3.org/2000/svg" viewBox="0 0 441.84 165.73"><defs><style>.cls-1{opacity:0.6;}.cls-2{fill:#636362;}.cls-3{fill:#fff;}</style></defs><g id="scritta_finita" data-name="scritta finita"><g class="cls-1"><path class="cls-2" d="M284.44,445.13A58.66,58.66,0,0,1,272,463.21a56.77,56.77,0,0,1-13.89,10.06l3.68-8.7A49.3,49.3,0,0,0,278,445.13Z" transform="translate(-76.91 -343.19)"/><path class="cls-2" d="M291.14,411.16a98.39,98.39,0,0,1-1.05,14.71h-6.2a97.52,97.52,0,0,0,1.05-14.71,36,36,0,0,0-.48-6.05l4.63-11.52A65.06,65.06,0,0,1,291.14,411.16Z" transform="translate(-76.91 -343.19)"/><path class="cls-2" d="M279,368.2l-2.74,6.34A46,46,0,0,0,267.38,364q-17.55-15.54-54-15.55H188.74V475.07H215.5a116.88,116.88,0,0,0,21-1.75L234.37,479a125.22,125.22,0,0,1-18.29,1.26H182.72V343.19H212.4Q260.16,343.19,279,368.2Z" transform="translate(-76.91 -343.19)"/></g><g class="cls-1"><path class="cls-2" d="M240.43,480.86l55.28-136.81h5.57l53,136.81h-6.14l-15.74-41.24h-69.3l-16.51,41.24Zm24.76-46.44h65.08l-31.68-83.05Z" transform="translate(-76.91 -343.19)"/></g><g class="cls-1"><path class="cls-2" d="M412,367.77l-4.5,3.79q-6-11.16-15.47-16.84t-24.28-5.67a48.65,48.65,0,0,0-28.12,8.33,51.45,51.45,0,0,0-17.46,20l-3.1-6.88a58.63,58.63,0,0,1,17.66-18.24q13.77-9.09,32.14-9.08a52.13,52.13,0,0,1,25.7,6.24A42.56,42.56,0,0,1,412,367.77Z" transform="translate(-76.91 -343.19)"/><path class="cls-2" d="M313.83,425.52h-6a110,110,0,0,1-.68-12.58,99.13,99.13,0,0,1,1.73-19l4.55,11.71c-.2,2.5-.29,5.05-.29,7.67A109.76,109.76,0,0,0,313.83,425.52Z" transform="translate(-76.91 -343.19)"/><path class="cls-2" d="M336.18,473.43c-.82-.42-1.64-.87-2.43-1.34a53.71,53.71,0,0,1-20.38-22.75q-1-2-1.83-4.21h6.1c2.07,5,6.11,10.15,9.43,13.91a41.19,41.19,0,0,0,7,6.26Z" transform="translate(-76.91 -343.19)"/><path class="cls-2" d="M413.31,418.45v60.89h-4.13l-1.31-22.5a42.31,42.31,0,0,1-16.68,17.87q-10.5,6-26.25,6c-1.08,0-2.16,0-3.23-.08l-2.3-6c1.9.15,3.88.23,5.9.23q21.39,0,32-11.26t10.6-30.16v-9.83H372.62v-5.11Z" transform="translate(-76.91 -343.19)"/></g></g><path class="cls-3" d="M80.88,428.77a4.92,4.92,0,0,1-3.1-.84A2.15,2.15,0,0,1,77,425.7a6.25,6.25,0,0,1,2.28-3.4,16.94,16.94,0,0,1,5.08-3,102.86,102.86,0,0,1,10-11.54.35.35,0,0,1,.24-.12.32.32,0,0,1,.37.37.35.35,0,0,1-.12.24,97.66,97.66,0,0,0-9.23,10.6,23.52,23.52,0,0,1,6.85-1,22.94,22.94,0,0,1,4.11.34c.22.08.34.2.34.36a.32.32,0,0,1-.13.24.35.35,0,0,1-.27.13h-.06a21.39,21.39,0,0,0-4-.37,21,21,0,0,0-7.61,1.31A43.57,43.57,0,0,0,81,425.27a.49.49,0,0,1-.3.18.34.34,0,0,1-.26-.12.37.37,0,0,1-.11-.24.25.25,0,0,1,.07-.19c.3-.56,1.33-2.07,3.1-4.5a14.25,14.25,0,0,0-4,2.63,5.67,5.67,0,0,0-1.79,2.82,1.46,1.46,0,0,0,.65,1.6,4.73,4.73,0,0,0,2.57.56,18.43,18.43,0,0,0,9.17-2.77,29,29,0,0,0,8.29-7.16,19.53,19.53,0,0,0,4.25-8.82,3.61,3.61,0,0,0-.73-3.31,4.59,4.59,0,0,0-3.5-1.2,16.27,16.27,0,0,0-5.6,1.06,24.34,24.34,0,0,0-5.36,2.73,35.15,35.15,0,0,0-4.4,3.52,21.35,21.35,0,0,0-3.15,3.62.35.35,0,0,1-.34.18.36.36,0,0,1-.24-.1.35.35,0,0,1-.12-.26l.06-.22a22.78,22.78,0,0,1,3.24-3.7A36.62,36.62,0,0,1,87,408a25.19,25.19,0,0,1,5.56-2.8,16.81,16.81,0,0,1,5.8-1.1,5.27,5.27,0,0,1,4.06,1.42,4.35,4.35,0,0,1,.93,3.88,18.94,18.94,0,0,1-2.92,7A29.49,29.49,0,0,1,95,422.62a28.58,28.58,0,0,1-6.93,4.43A17.29,17.29,0,0,1,80.88,428.77Z" transform="translate(-76.91 -343.19)"/><path class="cls-3" d="M110.84,425.15q-2.22,0-2.22-1.86a7.31,7.31,0,0,1,1.55-3.74c.08-.09.1-.14,0-.17a.13.13,0,0,0-.17,0c-.37.23-.78.51-1.25.86-.16.1-.47.31-.91.64s-.78.56-1,.71l-1,.69c-.43.3-.78.54-1,.71l-1,.63c-.39.24-.72.43-1,.56l-.85.41a4.58,4.58,0,0,1-.81.3,2.33,2.33,0,0,1-.64.1,1.2,1.2,0,0,1-.82-.28.94.94,0,0,1-.31-.73,3.65,3.65,0,0,1,1.5-2.36,15.29,15.29,0,0,1,3.33-2.3,7,7,0,0,1,2.91-.94,1.77,1.77,0,0,1,1.73.94,8,8,0,0,1,2.38-1.52c.28,0,.42.15.42.46a3.17,3.17,0,0,1-.67,1.25c-1.17,1.64-1.76,2.89-1.76,3.74a.94.94,0,0,0,.36.85,2.15,2.15,0,0,0,1.19.25,15.8,15.8,0,0,0,5.06-1.4,26.11,26.11,0,0,0,5.93-3.26.36.36,0,0,1,.25-.06.27.27,0,0,1,.3.3.43.43,0,0,1-.12.31,31.8,31.8,0,0,1-6.17,3.36A15.44,15.44,0,0,1,110.84,425.15Zm-10.26-.89q1.68,0,7.73-4.53a1.17,1.17,0,0,0-.39-.5,1.34,1.34,0,0,0-.73-.14,6.24,6.24,0,0,0-2.74.91,15.27,15.27,0,0,0-3,2.1c-.87.79-1.31,1.43-1.31,1.92C100.12,424.18,100.28,424.26,100.58,424.26Z" transform="translate(-76.91 -343.19)"/><path class="cls-3" d="M118.91,425.09a.49.49,0,0,1-.43-.22.58.58,0,0,1-.09-.48c.12-.53,1-1.82,2.77-3.89a32.12,32.12,0,0,1,5-4.94.35.35,0,0,1,.24-.06q.33,0,.33.3a.45.45,0,0,1-.12.31,25.06,25.06,0,0,0-3.51,3.25,41.54,41.54,0,0,0-3,3.66c-.08.1-.1.19,0,.27s.15.08.29,0q7.25-5.24,9.47-5.24c.67,0,1,.29,1,.86q0,.12-.45,2.49a7.2,7.2,0,0,0-.37,1.83c0,.32.23.49.7.49a11.62,11.62,0,0,0,4.2-1.1,31.54,31.54,0,0,0,5.39-2.95h.18c.27,0,.4.1.4.3a.36.36,0,0,1-.21.31,32.91,32.91,0,0,1-5.57,3,12.33,12.33,0,0,1-4.39,1.11c-.95,0-1.43-.39-1.43-1.16a13.81,13.81,0,0,1,.37-2,12.6,12.6,0,0,0,.48-2.19.27.27,0,0,0-.3-.31q-1.86,0-8.77,5l-.58.39-.65.46-.58.41A.64.64,0,0,1,118.91,425.09Z" transform="translate(-76.91 -343.19)"/><path class="cls-3" d="M139.52,425.45a1.7,1.7,0,0,1-1.23-.42,1.56,1.56,0,0,1-.44-1.19c0-1.18,1.26-3.07,3.8-5.66a.35.35,0,0,1,.25-.07c.24,0,.36.11.36.31a.35.35,0,0,1-.12.24,22.66,22.66,0,0,0-2.6,3.08,4.5,4.5,0,0,0-1,2.1c0,.59.32.88,1,.88a16.74,16.74,0,0,0,5.25-1.7,44.9,44.9,0,0,0,6.35-3.35h.18c.27,0,.4.1.4.3a.43.43,0,0,1-.12.31,51.12,51.12,0,0,1-6.64,3.45A16.52,16.52,0,0,1,139.52,425.45Zm4-8.4c-.24,0-.37-.1-.37-.31a.41.41,0,0,1,.06-.27l.25-.24.58-.79a.41.41,0,0,1,.3-.16c.2,0,.31.14.31.4a.34.34,0,0,1-.07.24,4.52,4.52,0,0,0-.54.76l-.25.25Q143.72,417.05,143.51,417.05Z" transform="translate(-76.91 -343.19)"/><path class="cls-3" d="M150.3,427.83a2.33,2.33,0,0,1-1.55-.43,1.71,1.71,0,0,1-.49-1.37q0-2.61,4.06-8.23a102.16,102.16,0,0,1,9.29-11,117,117,0,0,1,10.32-9.54q5.1-4.14,7-4.14c.91,0,1.37.41,1.37,1.25s-1,2.45-3.08,4.73a92.68,92.68,0,0,1-7.49,7.35q-4.41,3.93-9.54,7.89a99.09,99.09,0,0,1-9,6.3c-1.5,2.38-2.25,4.18-2.25,5.42a1.08,1.08,0,0,0,.29.9,1.83,1.83,0,0,0,1.08.23q1.48,0,5.69-2.18a80.34,80.34,0,0,0,8.65-5.25.41.41,0,0,1,.27-.06c.2,0,.31.12.31.36a.34.34,0,0,1-.13.25,77.8,77.8,0,0,1-8.64,5.25C153.5,427.06,151.46,427.83,150.3,427.83Zm1.82-8.62A125.76,125.76,0,0,0,164,410.4a142.17,142.17,0,0,0,11.07-10c3-3.09,4.54-5.11,4.54-6.06,0-.37-.24-.55-.7-.55-1.24,0-3.58,1.4-7,4.22a113.52,113.52,0,0,0-10.8,10.26A91.17,91.17,0,0,0,152.12,419.21Z" transform="translate(-76.91 -343.19)"/><path class="cls-3" d="M163.15,425.57c-.8,0-1.19-.47-1.19-1.43a4.52,4.52,0,0,1,1.06-2.69,9.47,9.47,0,0,1,2.74-2.42.09.09,0,0,1,0-.06s0,0,0-.06c.16-.31.36-.43.6-.37a.28.28,0,0,0,.25,0,3.52,3.52,0,0,1,.88-.3s0-.06.12-.06.31.12.31.36-.08.31-.25.31l-.12.06a.33.33,0,0,0-.12.06q-.18.09,0,.18a11.7,11.7,0,0,0,5.51,1.67,9.17,9.17,0,0,0,5.21-1.15h.18q.39,0,.39.3a.36.36,0,0,1-.24.31,10.08,10.08,0,0,1-5.68,1.23,12.46,12.46,0,0,1-6-1.84q-.09-.09-.15,0a.2.2,0,0,0-.06.15,5.74,5.74,0,0,1-.89,3.82C165,424.92,164.14,425.57,163.15,425.57Zm0-.67c.73,0,1.43-.61,2.1-1.82a5.26,5.26,0,0,0,.76-3.35,9.31,9.31,0,0,0-2.42,2.13,3.77,3.77,0,0,0-1,2.28C162.63,424.65,162.8,424.9,163.15,424.9Z" transform="translate(-76.91 -343.19)"/><path class="cls-3" d="M206.93,427.77a.31.31,0,0,1-.31-.19q-.8-1.43,5-9-7.47-.18-12.09.06-5.33,4.08-8.19,6.67a.37.37,0,0,1-.61-.24.37.37,0,0,1,.12-.25q3-2.7,7.37-6.06a49.83,49.83,0,0,0-7.8,1h-.06a.37.37,0,0,1-.27-.12.35.35,0,0,1-.12-.25q0-.27.33-.39a58.71,58.71,0,0,1,9-1q7.32-5.53,14.07-9.78t8.86-4.25c.73,0,1,.37.7,1.12-.2.59-1.83,2.73-4.87,6.43q-1,1.28-2.65,3.39t-2.34,3c1.11,0,2.8.13,5.07.26l4.61.26q.36.12.36.36a.34.34,0,0,1-.1.26.36.36,0,0,1-.26.11c-4.29-.26-7.69-.43-10.23-.49q-5.76,7.56-5.24,8.56a.24.24,0,0,1,.06.18.35.35,0,0,1-.12.24A.35.35,0,0,1,206.93,427.77Zm-6.4-9.87q4.78-.18,11.57,0l5.39-6.85c3-3.71,4.58-5.79,4.72-6.24a.76.76,0,0,1,.09-.18v0l-.09,0q-1.92,0-8.25,4T200.53,417.9Z" transform="translate(-76.91 -343.19)"/><path class="cls-3" d="M220.38,427.83a2.35,2.35,0,0,1-1.55-.43,1.74,1.74,0,0,1-.49-1.37q0-2.61,4.07-8.23a102,102,0,0,1,9.28-11A117,117,0,0,1,242,397.23q5.1-4.14,7-4.14c.92,0,1.37.41,1.37,1.25s-1,2.45-3.07,4.73a94.36,94.36,0,0,1-7.49,7.35q-4.42,3.93-9.55,7.89a100.53,100.53,0,0,1-9,6.3C219.76,423,219,424.79,219,426a1.11,1.11,0,0,0,.29.9,1.88,1.88,0,0,0,1.08.23q1.5,0,5.7-2.18a79.29,79.29,0,0,0,8.64-5.25.42.42,0,0,1,.28-.06q.3,0,.3.36a.37.37,0,0,1-.12.25,77,77,0,0,1-8.65,5.25Q222.12,427.83,220.38,427.83Zm1.83-8.62a127.06,127.06,0,0,0,11.89-8.81,145.94,145.94,0,0,0,11.07-10q4.53-4.63,4.53-6.06c0-.37-.23-.55-.7-.55-1.24,0-3.57,1.4-7,4.22a114.75,114.75,0,0,0-10.81,10.26A91,91,0,0,0,222.21,419.21Z" transform="translate(-76.91 -343.19)"/><path class="cls-3" d="M235.67,425.27a4,4,0,0,1-2.16-.5,1.6,1.6,0,0,1-.8-1.42,5.06,5.06,0,0,1,1.82-3.36,5,5,0,0,1,3.36-1.81c.75,0,1.13.32,1.13,1,0,.41-.29.8-.86,1.19a3,3,0,0,1-1.7.58,3.67,3.67,0,0,1-1.55-.25,4.25,4.25,0,0,0-1.43,2.68c0,.79.73,1.19,2.19,1.19a18,18,0,0,0,5.34-1.36,27.28,27.28,0,0,0,6.62-3.45.24.24,0,0,1,.18-.06c.25,0,.37.1.37.3a.32.32,0,0,1-.18.31,26.68,26.68,0,0,1-6.76,3.59A18.67,18.67,0,0,1,235.67,425.27Zm.79-5a2.56,2.56,0,0,0,1.2-.4c.46-.26.69-.49.69-.67s-.16-.24-.46-.24a4.08,4.08,0,0,0-2.44,1.18A4.24,4.24,0,0,0,236.46,420.22Z" transform="translate(-76.91 -343.19)"/><path class="cls-3" d="M243.55,429.44c-.87,0-1.31-.28-1.31-.85s.75-1.41,2.26-2.09a71.8,71.8,0,0,1,8.28-2.78,3.55,3.55,0,0,0,.06-.76.38.38,0,0,0-.23-.38,2.26,2.26,0,0,0-.9-.11,8.66,8.66,0,0,0-1.67.18,16.27,16.27,0,0,1-2.13.24c-1,0-1.5-.32-1.5-1,0-.89.69-1.89,2.06-3a6.23,6.23,0,0,1,3.76-1.65c.73,0,1.1.32,1.1.95v.24a2.82,2.82,0,0,1-1.31,1.8.38.38,0,0,1-.25.06c-.2,0-.3-.12-.3-.37a.49.49,0,0,1,.18-.3,2.09,2.09,0,0,0,1-1.37v-.06c0-.17-.15-.25-.43-.25a5.71,5.71,0,0,0-3.24,1.43c-1.25,1-1.88,1.79-1.88,2.5,0,.2.27.3.8.3a16.76,16.76,0,0,0,2-.24,12.08,12.08,0,0,1,1.79-.27c1.26,0,1.89.41,1.89,1.25a1.37,1.37,0,0,1-.06.51l1.43-.39c.87-.27,2-.62,3.52-1.05l3.09-.93a6.49,6.49,0,0,1,2.37-2.56,5.87,5.87,0,0,1,3.23-1.25,1.24,1.24,0,0,1,.71.2.62.62,0,0,1,.29.56c0,.59-.45,1.16-1.37,1.71a24.15,24.15,0,0,1-4.69,1.89.41.41,0,0,0-.06.27c0,.2.28.3.82.3a16.51,16.51,0,0,0,2-.24,12.17,12.17,0,0,1,1.83-.27,1.32,1.32,0,0,1,.85.24.7.7,0,0,1,.28.64s-.05.18-.15.49c.58-.19,1.52-.47,2.81-.86s2.06-.61,2.3-.7c2.52-.69,4.6-1.3,6.24-1.85h.12c.27,0,.4.1.4.3a.39.39,0,0,1-.28.37q-2.73.89-6.3,1.88-3.13.88-5.78,1.8a11.5,11.5,0,0,1-2.83,2.77,5.87,5.87,0,0,1-3.29,1.28c-.69,0-1-.26-1-.79s.61-1,1.81-1.74a32.55,32.55,0,0,1,4.8-2.13h.12a3.74,3.74,0,0,0,.37-.88,1.09,1.09,0,0,0-.43-.06,10.58,10.58,0,0,0-1.77.18,13.52,13.52,0,0,1-2,.24c-1,0-1.49-.32-1.49-1-1.05.35-3.13,1-6.24,1.86-.69.2-1.3.36-1.82.48q-.92,2.12-4.12,3.64A13.26,13.26,0,0,1,243.55,429.44Zm0-.67a12.56,12.56,0,0,0,5-1.23,8.52,8.52,0,0,0,3.9-2.94c-3.51,1-6,1.85-7.38,2.44s-2.12,1.1-2.12,1.55C242.91,428.71,243.13,428.77,243.55,428.77Zm17.51-1.43a4.91,4.91,0,0,0,2.54-.85,10.41,10.41,0,0,0,2.39-2,28.16,28.16,0,0,0-3.65,1.61c-1.06.57-1.59,1-1.59,1.13S260.85,427.34,261.06,427.34Zm1.49-6.61c3.29-1.09,4.93-2,4.93-2.68a.67.67,0,0,0-.3-.06,4.86,4.86,0,0,0-2.42.87A8.24,8.24,0,0,0,262.55,420.73Z" transform="translate(-76.91 -343.19)"/><path class="cls-3" d="M286.11,425.15q-2.22,0-2.22-1.86a7.31,7.31,0,0,1,1.55-3.74c.09-.09.1-.14.05-.17a.13.13,0,0,0-.17,0c-.36.23-.78.51-1.24.86-.17.1-.47.31-.92.64l-1,.71q-.35.22-1,.69l-1.05.71-1,.63a9.2,9.2,0,0,1-1,.56l-.85.41a4.07,4.07,0,0,1-.81.3,2.28,2.28,0,0,1-.64.1,1.21,1.21,0,0,1-.82-.28.93.93,0,0,1-.3-.73,3.66,3.66,0,0,1,1.49-2.36,15.54,15.54,0,0,1,3.33-2.3,7,7,0,0,1,2.91-.94,1.79,1.79,0,0,1,1.74.94,8.18,8.18,0,0,1,2.37-1.52c.29,0,.43.15.43.46a3.32,3.32,0,0,1-.67,1.25c-1.18,1.64-1.77,2.89-1.77,3.74a.92.92,0,0,0,.37.85,2.11,2.11,0,0,0,1.18.25,15.8,15.8,0,0,0,5.06-1.4,26.41,26.41,0,0,0,5.94-3.26.35.35,0,0,1,.24-.06.27.27,0,0,1,.3.3.43.43,0,0,1-.12.31,31.7,31.7,0,0,1-6.16,3.36A15.54,15.54,0,0,1,286.11,425.15Zm-10.26-.89q1.68,0,7.74-4.53a1.18,1.18,0,0,0-.4-.5,1.32,1.32,0,0,0-.73-.14,6.28,6.28,0,0,0-2.74.91,14.91,14.91,0,0,0-3,2.1c-.88.79-1.31,1.43-1.31,1.92Q275.4,424.26,275.85,424.26Z" transform="translate(-76.91 -343.19)"/><path class="cls-3" d="M294.18,425.09a.47.47,0,0,1-.42-.22.54.54,0,0,1-.09-.48c.12-.53,1-1.82,2.77-3.89a32.09,32.09,0,0,1,5-4.94.35.35,0,0,1,.24-.06c.23,0,.34.1.34.3a.45.45,0,0,1-.12.31,25.66,25.66,0,0,0-3.52,3.25,41.54,41.54,0,0,0-3,3.66c-.08.1-.1.19-.05.27s.15.08.29,0q7.26-5.24,9.47-5.24c.67,0,1,.29,1,.86,0,.08-.15.91-.46,2.49a7.53,7.53,0,0,0-.36,1.83c0,.32.23.49.69.49a11.71,11.71,0,0,0,4.21-1.1,31.91,31.91,0,0,0,5.39-2.95h.18q.39,0,.39.3a.36.36,0,0,1-.21.31,32.53,32.53,0,0,1-5.57,3,12.33,12.33,0,0,1-4.39,1.11c-.95,0-1.42-.39-1.42-1.16a14.69,14.69,0,0,1,.36-2,13.07,13.07,0,0,0,.49-2.19.28.28,0,0,0-.31-.31q-1.86,0-8.77,5l-.57.39c-.19.12-.4.28-.66.46l-.58.41A.64.64,0,0,1,294.18,425.09Z" transform="translate(-76.91 -343.19)"/><path class="cls-3" d="M320.61,425.15q-2.25,0-2.25-1.86a7.55,7.55,0,0,1,1.37-3.07c.1-.13.12-.21.07-.25s-.13,0-.26.06q-2.76,2.57-4.32,3.78a4.69,4.69,0,0,1-2.28,1.22.76.76,0,0,1-.58-.25.86.86,0,0,1-.24-.64c0-1.15.84-2.44,2.54-3.85a7.55,7.55,0,0,1,4.64-2.11,1.75,1.75,0,0,1,1,.24c.34-.35.92-.88,1.73-1.61q3.19-4.51,7.84-10.07t8.63-9.6c2.66-2.7,4.34-4.05,5.06-4.05a.74.74,0,0,1,.85.82q0,1.15-7.37,8.95t-14.71,14.62l-1.18,1.73a2.13,2.13,0,0,1,.18.94.36.36,0,0,1-.36.31.32.32,0,0,1-.26-.12.35.35,0,0,1-.11-.25V420a9.64,9.64,0,0,0-1.55,3.26.94.94,0,0,0,.36.85,2.15,2.15,0,0,0,1.19.25,16.69,16.69,0,0,0,5.34-1.34,29.83,29.83,0,0,0,6.44-3.38l.09,0,.1,0a.32.32,0,0,1,.36.36.32.32,0,0,1-.18.31,30.86,30.86,0,0,1-6.62,3.48A16.9,16.9,0,0,1,320.61,425.15Zm-7.55-.89q.85,0,6.67-5.35h-.43a6.93,6.93,0,0,0-4.09,1.88c-1.56,1.26-2.33,2.36-2.33,3.29A.16.16,0,0,0,313.06,424.26Zm11.78-10.13q6.92-6.64,12.91-13t6-7.22-.18-.12q-1.23,0-7.33,6.7T324.84,414.13Z" transform="translate(-76.91 -343.19)"/><path class="cls-3" d="M332,431.82q-1.71,0-1.71-1.62a3.7,3.7,0,0,1,.49-1.7,12.29,12.29,0,0,1,1.66-2.29c.78-.89,1.41-1.59,1.9-2.1s1.28-1.31,2.38-2.4c.85-.83,1.51-1.48,2-1.95s1-1,1.54-1.65a11.2,11.2,0,0,0,1.22-1.56,2.21,2.21,0,0,0,.38-1.05c0-.39-.56-1-1.67-1.77a54.53,54.53,0,0,1-7.37,6.55.36.36,0,0,1-.25.06c-.2,0-.3-.12-.3-.37a.35.35,0,0,1,.12-.24,51,51,0,0,0,7.16-6.36l-1-.69a3.16,3.16,0,0,1-.53-.5.88.88,0,0,1-.23-.55c0-.77.81-1.78,2.42-3s2.91-1.86,3.88-1.86c.45,0,.67.24.67.73q0,1.33-4.11,5.75c.19.19.43.4.73.66a6.89,6.89,0,0,1,.66.58,3.11,3.11,0,0,1,.38.47,1,1,0,0,1,.18.55,2.65,2.65,0,0,1-.38,1.21,10.26,10.26,0,0,1-1.37,1.82c-.66.74-1.18,1.3-1.57,1.7s-1.06,1.08-2,2.06q-2,2-3.09,3.09a21.84,21.84,0,0,0-2.1,2.54A4.47,4.47,0,0,0,331,430.2a.87.87,0,0,0,.23.67,1.14,1.14,0,0,0,.78.21q2.4,0,8.49-3.57t11.87-7.78a.27.27,0,0,1,.19-.06q.39,0,.39.3a.43.43,0,0,1-.12.31q-6,4.32-12.16,7.93T332,431.82Zm8-18.94c.8-.83,1.61-1.76,2.44-2.79a10.89,10.89,0,0,0,1.55-2.27q.06-.15,0-.21a.25.25,0,0,0-.21,0,8.68,8.68,0,0,0-3.26,1.75c-1.32,1-2,1.77-2,2.3C338.57,411.79,339.07,412.21,340.06,412.88Z" transform="translate(-76.91 -343.19)"/><path class="cls-3" d="M350.84,425.57c-.79,0-1.19-.47-1.19-1.43a4.54,4.54,0,0,1,1.07-2.69,9.34,9.34,0,0,1,2.74-2.42.09.09,0,0,1,0-.06.09.09,0,0,0,0-.06c.16-.31.37-.43.61-.37a.26.26,0,0,0,.24,0,3.59,3.59,0,0,1,.89-.3s0-.06.12-.06.3.12.3.36-.08.31-.24.31l-.12.06a.33.33,0,0,0-.12.06q-.19.09,0,.18a11.7,11.7,0,0,0,5.51,1.67,9.14,9.14,0,0,0,5.2-1.15h.18c.27,0,.4.1.4.3a.36.36,0,0,1-.24.31,10.1,10.1,0,0,1-5.68,1.23,12.42,12.42,0,0,1-6-1.84c-.06-.06-.12-.07-.16,0a.2.2,0,0,0-.06.15,5.73,5.73,0,0,1-.88,3.82C352.72,424.92,351.84,425.57,350.84,425.57Zm0-.67c.73,0,1.43-.61,2.1-1.82a5.2,5.2,0,0,0,.76-3.35,9.47,9.47,0,0,0-2.42,2.13,3.77,3.77,0,0,0-1,2.28C350.32,424.65,350.5,424.9,350.84,424.9Z" transform="translate(-76.91 -343.19)"/><path class="cls-3" d="M377.54,438.94a1.86,1.86,0,0,1-1.32-.43,1.35,1.35,0,0,1-.47-1.06c0-1,1.37-2.41,4.12-4.19s7.38-4.32,13.9-7.63a65.48,65.48,0,0,0,3.81-5.6c.06-.12.06-.2,0-.26a.21.21,0,0,0-.25,0l-.64.43c-1.34.91-2.44,1.64-3.32,2.19s-2,1.2-3.37,2a21.15,21.15,0,0,1-4,1.71,12.7,12.7,0,0,1-3.57.56,4,4,0,0,1-3-1,3.31,3.31,0,0,1-.64-2.92,14,14,0,0,1,1.75-4.28,30.72,30.72,0,0,1,3.64-4.94,45.64,45.64,0,0,1,4.78-4.65,24,24,0,0,1,5.5-3.48A13.32,13.32,0,0,1,400,404a3.9,3.9,0,0,1,2.66.81,2.86,2.86,0,0,1,.93,2.29c0,1.49-1.09,3.29-3.29,5.42a.36.36,0,0,1-.24.13.39.39,0,0,1-.27-.13.3.3,0,0,1,0-.48q3.13-3.13,3.13-4.94c0-1.58-1-2.37-2.92-2.37a13.76,13.76,0,0,0-6.65,2,28.84,28.84,0,0,0-6.41,4.83,38.33,38.33,0,0,0-4.89,5.94,15.1,15.1,0,0,0-2.45,5.32Q379,426,382.47,426a11.4,11.4,0,0,0,3.38-.55,20,20,0,0,0,3.89-1.7q2.08-1.16,3.27-1.89c.79-.49,1.9-1.21,3.32-2.16a21.08,21.08,0,0,1,2.1-1.43.37.37,0,0,1,.52.06.36.36,0,0,1,.12.48,45.43,45.43,0,0,1-3.93,6.18l3-1.49c4-2,6.44-3.21,7.31-3.8h.18c.25,0,.37.1.37.3a.32.32,0,0,1-.18.31c-.31.18-.72.42-1.25.71s-1.21.66-2,1.08-1.62.82-2.36,1.19l-2.94,1.46c-1.22.61-2.22,1.11-3,1.49a55,55,0,0,1-8.85,9C382.26,437.71,379.65,438.94,377.54,438.94Zm0-.7q2.81,0,6.94-3.21a53.4,53.4,0,0,0,8.16-8q-16.12,8.25-16.13,10.45C376.51,438,376.85,438.24,377.54,438.24Z" transform="translate(-76.91 -343.19)"/><path class="cls-3" d="M411.58,425.09q-2.25,0-2.25-1.86a5.08,5.08,0,0,1,.88-2.37c.24-.35.34-.53.29-.54a1.77,1.77,0,0,0-.56.35q-4.85,3.93-6.15,3.93a.9.9,0,0,1-.69-.27,1,1,0,0,1-.26-.67c0-1.14,1.21-2.78,3.63-4.94a.35.35,0,0,1,.24-.12.37.37,0,0,1,.24.11.35.35,0,0,1,.13.26.36.36,0,0,1-.13.24,16.75,16.75,0,0,0-2.45,2.54,3.69,3.69,0,0,0-.9,1.84c0,.21.07.31.19.31.67,0,2.57-1.27,5.72-3.81.16-.12.38-.29.64-.51a11.93,11.93,0,0,1,2.56-1.8c.67,0,.54.55-.4,1.64Q410,422,410,423.23a1,1,0,0,0,.36.88,2.11,2.11,0,0,0,1.22.28,15.37,15.37,0,0,0,5-1.53,33.89,33.89,0,0,0,6-3.19.35.35,0,0,1,.24-.06c.23,0,.34.12.34.36,0,.06-.05.14-.15.25a37.78,37.78,0,0,1-6.11,3.27A15.71,15.71,0,0,1,411.58,425.09Z" transform="translate(-76.91 -343.19)"/><path class="cls-3" d="M429.76,425.15c-1.49,0-2.23-.62-2.23-1.86a7.26,7.26,0,0,1,1.56-3.74c.08-.09.09-.14,0-.17s-.1,0-.17,0c-.36.23-.78.51-1.24.86-.17.1-.47.31-.92.64l-1,.71-1,.69-1.05.71-1,.63a9.2,9.2,0,0,1-1,.56l-.85.41a4.24,4.24,0,0,1-.8.3,2.39,2.39,0,0,1-.64.1,1.22,1.22,0,0,1-.83-.28.93.93,0,0,1-.3-.73,3.66,3.66,0,0,1,1.49-2.36,15.6,15.6,0,0,1,3.34-2.3,6.9,6.9,0,0,1,2.9-.94,1.79,1.79,0,0,1,1.74.94,8.18,8.18,0,0,1,2.37-1.52c.29,0,.43.15.43.46a3.17,3.17,0,0,1-.67,1.25c-1.18,1.64-1.77,2.89-1.77,3.74a1,1,0,0,0,.37.85,2.13,2.13,0,0,0,1.19.25,15.76,15.76,0,0,0,5.05-1.4,26.41,26.41,0,0,0,5.94-3.26.35.35,0,0,1,.24-.06.27.27,0,0,1,.3.3.43.43,0,0,1-.12.31,31.7,31.7,0,0,1-6.16,3.36A15.56,15.56,0,0,1,429.76,425.15Zm-10.26-.89q1.67,0,7.73-4.53a1.11,1.11,0,0,0-.4-.5,1.32,1.32,0,0,0-.73-.14,6.28,6.28,0,0,0-2.74.91,15.2,15.2,0,0,0-3,2.1c-.87.79-1.31,1.43-1.31,1.92C419,424.18,419.19,424.26,419.5,424.26Z" transform="translate(-76.91 -343.19)"/><path class="cls-3" d="M439.92,427.83a2.35,2.35,0,0,1-1.55-.43,1.74,1.74,0,0,1-.49-1.37q0-2.61,4.07-8.23a101,101,0,0,1,9.29-11,117,117,0,0,1,10.32-9.54q5.1-4.14,7-4.14c.92,0,1.37.41,1.37,1.25s-1,2.45-3.07,4.73a94.36,94.36,0,0,1-7.49,7.35q-4.41,3.93-9.55,7.89a100.53,100.53,0,0,1-9,6.3c-1.5,2.38-2.26,4.18-2.26,5.42a1.11,1.11,0,0,0,.29.9,1.88,1.88,0,0,0,1.08.23q1.5,0,5.7-2.18a79.29,79.29,0,0,0,8.64-5.25.44.44,0,0,1,.28-.06q.3,0,.3.36a.37.37,0,0,1-.12.25,77.8,77.8,0,0,1-8.64,5.25Q441.66,427.83,439.92,427.83Zm1.83-8.62a127.06,127.06,0,0,0,11.89-8.81,145.94,145.94,0,0,0,11.07-10q4.53-4.63,4.53-6.06c0-.37-.23-.55-.7-.55-1.23,0-3.57,1.4-7,4.22a114.75,114.75,0,0,0-10.81,10.26A91,91,0,0,0,441.75,419.21Z" transform="translate(-76.91 -343.19)"/><path class="cls-3" d="M440,440.92c-.39,0-.51-.2-.37-.61l.06-.06.09-.2.09-.2a260.67,260.67,0,0,1,21.38-28.43q-7.92.36-15.13,1.31H446a.35.35,0,0,1-.27-.13.35.35,0,0,1-.12-.24.36.36,0,0,1,.3-.36q7.89-1,15.93-1.25,5.21-6.12,10.53-11.91a.35.35,0,0,1,.24-.12.32.32,0,0,1,.37.37.35.35,0,0,1-.06.24q-4.32,4.67-10.11,11.36,7.83-.29,15.68,0,.3,0,.3.36c0,.2-.13.31-.39.31q-8.43-.32-16.26.06A254.34,254.34,0,0,0,441,439.49q.21.09,0,.42C440.56,440.58,440.23,440.92,440,440.92Z" transform="translate(-76.91 -343.19)"/><path class="cls-3" d="M462.91,425.45a1.7,1.7,0,0,1-1.23-.42,1.56,1.56,0,0,1-.44-1.19c0-1.18,1.26-3.07,3.8-5.66a.35.35,0,0,1,.25-.07c.24,0,.36.11.36.31a.35.35,0,0,1-.12.24,23.41,23.41,0,0,0-2.6,3.08,4.5,4.5,0,0,0-1,2.1c0,.59.32.88,1,.88a16.74,16.74,0,0,0,5.25-1.7,44.9,44.9,0,0,0,6.35-3.35h.18c.27,0,.4.1.4.3a.43.43,0,0,1-.12.31,51.12,51.12,0,0,1-6.64,3.45A16.52,16.52,0,0,1,462.91,425.45Zm4-8.4c-.24,0-.37-.1-.37-.31a.41.41,0,0,1,.06-.27l.25-.24c.3-.41.5-.67.58-.79a.41.41,0,0,1,.3-.16c.2,0,.31.14.31.4a.34.34,0,0,1-.07.24,4.52,4.52,0,0,0-.54.76l-.25.25Q467.11,417.05,466.9,417.05Z" transform="translate(-76.91 -343.19)"/><path class="cls-3" d="M475.39,425.27a4.06,4.06,0,0,1-2.16-.5,1.59,1.59,0,0,1-.79-1.42,6.64,6.64,0,0,1,5.18-5.17c.75,0,1.12.32,1.12,1,0,.41-.28.8-.85,1.19a3.08,3.08,0,0,1-1.7.58,3.72,3.72,0,0,1-1.56-.25,4.3,4.3,0,0,0-1.43,2.68c0,.79.73,1.19,2.19,1.19a17.94,17.94,0,0,0,5.35-1.36,27.47,27.47,0,0,0,6.62-3.45.24.24,0,0,1,.18-.06c.25,0,.37.1.37.3a.32.32,0,0,1-.19.31,26.68,26.68,0,0,1-6.76,3.59A18.54,18.54,0,0,1,475.39,425.27Zm.8-5a2.56,2.56,0,0,0,1.2-.4c.45-.26.68-.49.68-.67s-.15-.24-.45-.24a4.06,4.06,0,0,0-2.44,1.18A4.17,4.17,0,0,0,476.19,420.22Z" transform="translate(-76.91 -343.19)"/><path class="cls-3" d="M486.9,431.82c-1.13,0-1.7-.54-1.7-1.62a3.8,3.8,0,0,1,.48-1.7,12.78,12.78,0,0,1,1.66-2.29c.78-.89,1.42-1.59,1.91-2.1s1.28-1.31,2.37-2.4l2-1.95c.47-.47,1-1,1.54-1.65a12,12,0,0,0,1.22-1.56,2.21,2.21,0,0,0,.38-1.05q0-.58-1.68-1.77a53.93,53.93,0,0,1-7.37,6.55.35.35,0,0,1-.24.06c-.2,0-.3-.12-.3-.37a.35.35,0,0,1,.12-.24,50.94,50.94,0,0,0,7.15-6.36l-1-.69a3.16,3.16,0,0,1-.53-.5.83.83,0,0,1-.23-.55c0-.77.8-1.78,2.42-3s2.9-1.86,3.88-1.86c.45,0,.67.24.67.73q0,1.33-4.11,5.75a9.05,9.05,0,0,0,.73.66,7.9,7.9,0,0,1,.65.58,2.6,2.6,0,0,1,.38.47.92.92,0,0,1,.19.55,2.65,2.65,0,0,1-.38,1.21,10.79,10.79,0,0,1-1.37,1.82c-.66.74-1.19,1.3-1.57,1.7l-2,2.06q-2,2-3.09,3.09a21.84,21.84,0,0,0-2.1,2.54,4.47,4.47,0,0,0-1.05,2.28.84.84,0,0,0,.23.67,1.13,1.13,0,0,0,.77.21q2.4,0,8.5-3.57t11.87-7.78a.24.24,0,0,1,.18-.06c.27,0,.4.1.4.3a.43.43,0,0,1-.12.31q-6,4.32-12.17,7.93T486.9,431.82Zm8-18.94c.79-.83,1.6-1.76,2.44-2.79a11.31,11.31,0,0,0,1.55-2.27q.06-.15,0-.21a.27.27,0,0,0-.22,0,8.65,8.65,0,0,0-3.25,1.75c-1.32,1-2,1.77-2,2.3C493.45,411.79,494,412.21,494.94,412.88Z" transform="translate(-76.91 -343.19)"/><path class="cls-3" d="M506.57,425.45a1.7,1.7,0,0,1-1.23-.42,1.56,1.56,0,0,1-.44-1.19c0-1.18,1.26-3.07,3.8-5.66a.35.35,0,0,1,.25-.07c.24,0,.36.11.36.31a.35.35,0,0,1-.12.24,24.37,24.37,0,0,0-2.61,3.08,4.56,4.56,0,0,0-1,2.1c0,.59.32.88,1,.88a16.74,16.74,0,0,0,5.25-1.7,45.47,45.47,0,0,0,6.35-3.35h.18c.27,0,.4.1.4.3a.43.43,0,0,1-.12.31,51.12,51.12,0,0,1-6.64,3.45A16.59,16.59,0,0,1,506.57,425.45Zm4-8.4c-.25,0-.37-.1-.37-.31a.41.41,0,0,1,.06-.27l.25-.24c.3-.41.5-.67.58-.79a.41.41,0,0,1,.3-.16c.2,0,.3.14.3.4a.35.35,0,0,1-.06.24,4.52,4.52,0,0,0-.54.76l-.25.25Q510.77,417.05,510.56,417.05Z" transform="translate(-76.91 -343.19)"/><path class="cls-2" d="M232.77,503.92h-4.52l-2.08,4.68h-.42L231,496.75h.1l5.08,11.85h-1.43Zm-.13-.3-2.09-4.88-2.17,4.88Z" transform="translate(-76.91 -343.19)"/><path class="cls-2" d="M249.76,508.6l-4.28-5.41h-.86v5.41H243.3V497h3.51c.95,0,3.72.35,3.72,2.91,0,2.38-2.07,3.05-3.44,3.24l4.35,5.48Zm-5.14-5.71h1c2.16,0,3.5-.74,3.5-2.81s-1.13-2.81-3-2.81h-1.49Z" transform="translate(-76.91 -343.19)"/><path class="cls-2" d="M268.11,507.94a6,6,0,0,1-3.56,1c-2.32,0-6.2-1.17-6.2-6.1,0-4.29,3-6.07,6.37-6.07a7.17,7.17,0,0,1,3.39.76v.4a6.2,6.2,0,0,0-3.39-.86c-1.8,0-5,1-5,5.77s2.94,5.79,5,5.79a5.47,5.47,0,0,0,3.39-1.08Z" transform="translate(-76.91 -343.19)"/><path class="cls-2" d="M283.41,497V508.6h-1.32v-5.93h-5.44v5.93h-1.32V497h1.32v5.4h5.44V497Z" transform="translate(-76.91 -343.19)"/><path class="cls-2" d="M291,497h1.33V508.6H291Z" transform="translate(-76.91 -343.19)"/><path class="cls-2" d="M308.12,497.28h-3.58V508.6h-1.33V497.28h-3.58V497h8.49Z" transform="translate(-76.91 -343.19)"/><path class="cls-2" d="M316.49,497.28v5.09h4.07v.3h-4.07v5.62h4.57v.31h-5.89V497h5.89v.31Z" transform="translate(-76.91 -343.19)"/><path class="cls-2" d="M336.49,497.28h-3.58V508.6h-1.33V497.28H328V497h8.49Z" transform="translate(-76.91 -343.19)"/><path class="cls-2" d="M351.75,497.28h-3.58V508.6h-1.33V497.28h-3.58V497h8.49Z" transform="translate(-76.91 -343.19)"/><path class="cls-2" d="M369.53,502.82c0,4.93-4,6.1-6.37,6.1s-6.36-1.17-6.36-6.1c0-4.29,3.05-6.07,6.36-6.07S369.53,498.53,369.53,502.82Zm-1.36,0c0-4.79-3.21-5.77-5-5.77s-5,1-5,5.77,2.92,5.79,5,5.79S368.17,507.69,368.17,502.82Z" transform="translate(-76.91 -343.19)"/></svg>