<svg id="Livello_1" data-name="Livello 1" xmlns="http://www.w3.org/2000/svg" viewBox="0 0 230.59 137.67"><defs><style>.cls-1{opacity:0.6;}.cls-2{fill:#636362;}</style></defs><g id="scritta_finita" data-name="scritta finita"><g class="cls-1"><path class="cls-2" d="M284.06,445.13a58.66,58.66,0,0,1-12.4,18.08,56.77,56.77,0,0,1-13.89,10.06l3.68-8.7a49.3,49.3,0,0,0,16.19-19.44Z" transform="translate(-182.34 -343.19)"/><path class="cls-2" d="M290.76,411.16a98.39,98.39,0,0,1-1.05,14.71h-6.2a97.52,97.52,0,0,0,1.05-14.71,36,36,0,0,0-.48-6.05l4.63-11.52A65.06,65.06,0,0,1,290.76,411.16Z" transform="translate(-182.34 -343.19)"/><path class="cls-2" d="M278.57,368.2l-2.74,6.34A46,46,0,0,0,267,364q-17.55-15.54-54-15.55H188.36V475.07h26.76a116.88,116.88,0,0,0,21-1.75L234,479a125.22,125.22,0,0,1-18.29,1.26H182.34V343.19H212Q259.78,343.19,278.57,368.2Z" transform="translate(-182.34 -343.19)"/></g><g class="cls-1"><path class="cls-2" d="M240.05,480.86l55.29-136.81h5.56l53,136.81h-6.14L332,439.62H262.7l-16.5,41.24Zm24.77-46.44h65.07l-31.67-83.05Z" transform="translate(-182.34 -343.19)"/></g><g class="cls-1"><path class="cls-2" d="M411.62,367.77l-4.5,3.79q-6-11.16-15.47-16.84t-24.28-5.67a48.61,48.61,0,0,0-28.11,8.33,51.39,51.39,0,0,0-17.47,20l-3.1-6.88a58.63,58.63,0,0,1,17.66-18.24q13.78-9.09,32.15-9.08a52.12,52.12,0,0,1,25.69,6.24A42.56,42.56,0,0,1,411.62,367.77Z" transform="translate(-182.34 -343.19)"/><path class="cls-2" d="M313.45,425.52H307.5a110,110,0,0,1-.69-12.58,99.94,99.94,0,0,1,1.73-19l4.55,11.71c-.19,2.5-.28,5.05-.28,7.67A110,110,0,0,0,313.45,425.52Z" transform="translate(-182.34 -343.19)"/><path class="cls-2" d="M335.8,473.43c-.82-.42-1.63-.87-2.43-1.34A53.63,53.63,0,0,1,313,449.34q-1-2-1.83-4.21h6.09c2.07,5,6.11,10.15,9.44,13.91a41.13,41.13,0,0,0,6.95,6.26Z" transform="translate(-182.34 -343.19)"/><path class="cls-2" d="M412.93,418.45v60.89H408.8l-1.31-22.5a42.24,42.24,0,0,1-16.68,17.87q-10.5,6-26.24,6c-1.09,0-2.17,0-3.23-.08l-2.31-6q2.87.23,5.91.23,21.38,0,32-11.26t10.59-30.16v-9.83H372.25v-5.11Z" transform="translate(-182.34 -343.19)"/></g></g></svg>